<?xml version="1.0" encoding="UTF-8"?>
<svg id="_图层_1" data-name="图层_1" xmlns="http://www.w3.org/2000/svg" version="1.1" viewBox="0 0 200 200">
  <!-- Generator: Adobe Illustrator 29.4.0, SVG Export Plug-In . SVG Version: 2.1.0 Build 152)  -->
  <path d="M43,187c4.1,0,6.8-1.5,11-5.5l45-44.6c.4-.4.8-.7,1.2-.7.4,0,.8.3,1.2.7l45,44.6c4.1,4,6.9,5.4,11,5.4,5.6,0,9.1-4.3,9.1-10.1,0-3.1-1.3-6.9-2.5-10.4L111.5,23.6c-2.6-7.3-6.6-10.7-11.4-10.7-4.8,0-8.8,3.3-11.4,10.7l-52.4,142.9c-1.2,3.5-2.5,7.3-2.5,10.4,0,5.7,3.5,10.1,9.2,10.1h0ZM48.8,168.7c-.2-.1-.3-.4-.1-.9L99.3,31.1c.3-.7.5-.9.8-.9.3,0,.5.3.8.9l50.7,136.7c.2.5.1.8-.1.9-.1.1-.5,0-.8-.2l-46.5-47.1c-1.5-1.5-3-1.9-4.1-1.9-1.2,0-2.7.4-4.1,1.9l-46.5,47.1c-.2.2-.7.3-.8.2h0Z"/>
</svg>