<?xml version="1.0" standalone="no"?><!DOCTYPE svg PUBLIC "-//W3C//DTD SVG 1.1//EN" "http://www.w3.org/Graphics/SVG/1.1/DTD/svg11.dtd"><svg t="1745932995998" class="icon" viewBox="0 0 1537 1024" version="1.1" xmlns="http://www.w3.org/2000/svg" p-id="15884" xmlns:xlink="http://www.w3.org/1999/xlink" width="300.1953125" height="200"><path d="M961.88752199 364.452299c3.224836-89.47008999 2.873313-87.483224 2.84274701-87.04 0.168119-1.81874599 6.633075-75.944119-5.639642-146.783523-12.425552-71.74113399-93.199284-91.50280601-93.199284-91.50280601l-4.157134-0.152836-85.068418-3.24011899v0.443224l-84.243104 3.194268-4.157135 0.152836s-80.743164 19.761672-93.184 91.48752299c-12.272716 70.839403-5.823045 144.98006-5.654925 146.78352201-0.03056701-0.42794-0.38208999-2.43008999 2.842746 87.009433 3.392955 94.345552-5.960597 327.02280601-4.676776 355.28214899 1.268537 28.228776-2.10913401 88.109851 3.53050699 103.91307501s24.85110401 92.633791 24.85110501 92.633791 31.08680599 59.45313401 161.532179 50.573373v-0.366806c129.711761 8.57408999 160.676299-50.60394 160.676299-50.60394s19.211463-76.8 24.851104-92.633791c5.63964201-15.803224 2.26196999-75.684299 3.54579099-103.913075 1.268537-28.24406-8.069731-260.936597-4.69206-355.236298z" fill="#e98f36" p-id="15885"></path><path d="M883.63558201 283.158925c-30.429612-15.818507-106.985075-16.964776-106.98507501-16.964776v-0.106985s-76.57074599 1.10041799-106.98507401 16.91892599-41.60190999 23.33802998-39.50805999 33.88370101c2.10913401 10.545672 24.820537 115.605015 24.82053699 118.218508 0 2.64406 2.139701 7.152716 13.98447801 3.775044s107.688119-7.51952201 107.688119-7.519522v0.137552s95.82806 4.141851 107.68812 7.504239c11.844776 3.408239 13.96919401-1.10041799 13.969194-3.72919399 0-2.64406 22.726687-107.703403 24.83582101-118.23379101 2.093851-10.530388-9.109015-18.06519401-39.50806-33.883702z" fill="#121215" p-id="15886"></path><path d="M937.800597 334.374209s-0.36680599 120.847284 0 156.610866c0.36680599 35.794149-0.36680599 83.99856701-3.010866 116.75128299-2.628776 32.752716-8.650507 179.964179-8.650507 179.96417901v3.010866s-18.829373-51.215284-22.60441801-90.75391c-8.283701-38.774448-4.508657-134.41910399 0-192.771821 1.879881-57.955343 30.50603001-162.647881 34.26579101-172.811463z" fill="#101114" p-id="15887"></path><path d="M890.45206 750.332179c-2.170269-13.556537-4.06543299-9.59808999-4.600359-10.72907499-0.534925-1.115701-14.183164 2.537075-19.731104 3.95844799-44.597493 7.91689601-89.47008999 5.945313-89.47009 5.94531401v-0.152836s-44.887881 1.98686601-89.47008899-5.93003001c-5.54794-1.40609001-19.196179-5.05886601-19.73110501-3.958448-0.550209 1.130985-2.445373-2.812179-4.600358 10.729075-2.185552 13.571821-13.52596999 95.44596999-12.71594 96.317134 0.825313 0.840597 27.846687 16.918925 75.699582 24.53014899 10.545672 0.50435799 50.81790999 2.41480601 50.81791 2.26197101v0.152835c0 0.137552 40.256955-1.757612 50.81791101-2.26196999 47.85289601-7.641791 74.874269-23.704836 75.68429799-24.560716 0.825313-0.840597-10.530388-82.745313-12.700656-96.30185101z" fill="#131417" p-id="15888"></path><path d="M934.54519399 365.017791l11.997612 6.892896v11.58495499h-11.997612z" fill="#0D0E13" p-id="15889"></path><path d="M857.179701 46.59964201a12.838209 12.838209 0 0 0-3.37767099-1.66591101c-5.318687-1.54364201-3.087284-1.05456699 3.37767099 1.66591099zM941.315821 132.12656699c-8.329552-50.11486599-64.93994-77.487761-84.13612-85.52692498 19.272597 13.128597 32.966687 87.10113401 43.29838901 134.09814899 10.927761 49.702209 16.98006 129.803463 16.98005899 129.80346301s23.307463 4.233552 34.21994101 67.140776c8.298985 39.523343 0.779463-178.481672-10.36226901-245.51546302zM700.06447799 45.346388a12.410269 12.410269 0 0 0-3.39295598 1.650627c6.464955-2.70519401 8.71164199-3.209552 3.392956-1.650627zM612.550687 132.554507c-11.141731 67.018507-18.676537 285.008239-10.392836 245.484896 10.927761-62.876657 34.21994-67.110209 34.21994-67.11020899s6.06758199-80.116537 16.98006-129.81874601c10.331701-46.981731 24.025791-120.954269 43.31367101-134.098149-19.18089601 8.023881-75.80656699 35.41206-84.12083501 85.542208z" fill="#e98f36" p-id="15890"></path><path d="M899.912597 565.079881l36.69588099-27.678568v32.768l-36.69588099 23.139344zM652.92991001 824.99247799c-1.589493 12.333851-2.613493 21.22889601-2.338388 21.51928301 0.81003001 0.840597 27.831403 16.918925 75.68429899 24.53014901 10.560955 0.50435799 50.81790999 2.41480601 50.81791 2.26197099v0.152835c0 0.137552 40.272239-1.757612 50.81791101-2.26196999 47.85289601-7.641791 74.889552-23.704836 75.69958199-24.560716 0.412657-0.443224-2.506507-23.231045-5.700776-46.73719401l-244.98053799 25.09564201z" fill="#202226" p-id="15891"></path><path d="M648.46710399 404.41886599l234.52656801-55.55582099 35.534328-11.340418c2.200836-10.331701 3.82089599-18.00406 4.32525399-20.48 2.093851-10.530388-9.093731-18.08047801-39.50806-33.883702-30.414328-15.818507-106.985075-16.964776-106.98507499-16.964776v-0.106985s-76.57074599 1.10041799-106.985074 16.91892599-41.61719399 23.33802998-39.50806 33.88370101c1.39080599 6.95403001 11.707224 54.852776 18.60011901 87.52907501z" fill="#212428" p-id="15892"></path><path d="M616.341015 334.77158201s0.38208999 120.86256701 0 156.62614899c-0.36680599 35.77886601 0.38208999 83.968 3.010866 116.736s8.650507 179.979463 8.650507 179.97946299v3.01086601s18.829373-51.23056701 22.60441799-90.753911c8.283701-38.805015 4.52394-134.41910399 0-192.787104-1.879881-57.970627-30.50603001-162.647881-34.26579099-172.81146301z" fill="#101114" p-id="15893"></path><path d="M961.88752199 364.712119c3.224836-89.485373 2.873313-87.46794 2.84274701-87.024716 0.168119-1.83403001 6.633075-75.959403-5.639642-146.783522-12.425552-71.725851-93.199284-91.48752201-93.199284-91.48752299l-4.157134-0.16811901-85.068418-3.24012v0.443224l-84.243104 3.194269-4.157135 0.152836s-80.743164 19.776955-93.184 91.50280601c-12.272716 70.824119-5.823045 144.964776-5.654925 146.78352199-0.03056701-0.443224-0.38208999-2.445373 2.842746 87.009433 3.392955 94.330269-5.960597 327.00752201-4.676776 355.251582 1.268537 28.24406-2.10913401 88.12513401 3.53050699 103.928358 5.63964201 15.818507 24.85110401 92.649075 24.85110501 92.649075s31.08680599 59.437851 161.532179 50.558089v-0.351522c129.711761 8.55880601 160.676299-50.619224 160.676299-50.61922399s19.211463-76.83056701 24.851104-92.63379101c5.63964201-15.818507 2.26196999-75.669015 3.54579099-103.913075 1.268537-28.228776-8.069731-260.936597-4.69206-355.251582z m-5.63964099 460.647165c-15.818507 92.97002998-38.774448 108.03964201-64.756538 121.993552-25.98209001 13.923343-114.840836 15.803224-114.840836 15.803224v0.382089c-9.078448-0.244537-89.485373-2.659343-113.984955-15.78794-25.98209001-13.938627-48.953313-28.992955-64.771821-121.993552s6.20513401-130.659343 3.392956-210.30209001-2.521791-284.687284-1.696478-307.82662699c0.840597-23.139343-5.62435799-183.555821 16.674388-206.67988 22.29874601-23.16991001 54.05803001-54.91391001 72.85683599-56.060179a737.616239 737.616239 0 0 1 33.74614902-1.008717v-0.534925h54.65408999v-0.41265701h53.798209v0.56549301c9.56752201 0.07641799 23.017075 0.336239 33.74614898 0.993432 18.78352201 1.146269 50.55809001 32.905552 72.85683601 56.044896 22.29874601 23.16991001 15.849075 183.586388 16.674388 206.710448 0.840597 23.108776 1.115701 228.183881-1.69647799 307.81134299-2.85802998 79.64274601 19.165612 117.301493 3.347105 210.30209001z" fill="#A4A4A3" p-id="15894"></path><path d="M620.48286599 892.95856701s14.68752199 31.270209 38.02555202 39.553911 40.28752201 12.608955 40.28752199 12.608955-30.12394-0.36680599-45.743761-9.23128401-33.501612-22.772537-32.56931299-42.93158199z" fill="#D67524" p-id="15895"></path><path d="M689.09086601 44.903164s-32.569313 15.818507-42.35080601 26.54758199-24.285612 29.17635801-24.65241801 31.25492601 0 9.032597 2e-8 9.032597 58.15403001-63.075343 67.003224-66.835105z" fill="#D7B731" p-id="15896"></path><path d="M776.925612 35.992836h0.122269l0.030567-0.259821zM851.769313 47.31796999c-0.290388-3.255403-16.81194-8.054448-20.892656-8.89504499-3.973731-0.825313-51.016597-2.32310399-53.813493-2.414806v0.412657c-3.072 0.091701-49.82447799 1.589493-53.782925 2.399523-4.111284 0.855881-20.617552 5.654925-20.89265699 8.879761-0.290388 3.255403 2.827463 4.799045 6.75534299 3.13313401 3.973731-1.69647799 9.475821-6.51080599 13.69409-7.48895501 4.233552-0.978149 54.363701-2.68990999 54.363701-2.689911v-0.397373c3.912597 0.122269 50.023164 1.742328 54.088597 2.67462701 4.233552 0.978149 9.750925 5.79247799 13.69409 7.48895499 3.958448 1.69647799 7.061015 0.137552 6.78591-3.10256701z" fill="#1D2021" p-id="15897"></path><path d="M605.902328 372.323343s-32.768 12.991045-34.72429799 25.98208999-1.68119399 14.39713399 0 14.397134c1.69647799 0 36.43606-18.35558199 36.43606-18.35558199v-22.023642h-1.71176201z" fill="#C2C6C1" p-id="15898"></path><path d="M571.45313401 415.66758199l-0.275104-2.94973099 36.42077598-18.355582v2.537074z" fill="#0D0E13" p-id="15899"></path><path d="M619.611701 365.399881l-12.01289501 6.923462v11.584956h12.01289501z" fill="#0D0E13" p-id="15900"></path><path d="M654.229015 565.492537l-36.711164-27.69385v32.768l36.711164 23.16991z" fill="#202226" p-id="15901"></path><path d="M662.55856701 750.332179c2.170269-13.556537 4.050149-9.59808999 4.585075-10.72907499 0.550209-1.115701 14.213731 2.537075 19.746388 3.95844799 44.612776 7.91689601 89.47008999 5.945313 89.47008899 5.94531401v-0.152836s44.887881 1.98686601 89.47009-5.93003001c5.532657-1.40609001 19.196179-5.05886601 19.746388-3.958448 0.534925 1.130985 2.41480601-2.812179 4.600358 10.729075 2.154985 13.571821 13.495403 95.44596999 12.685373 96.317134-0.81003001 0.840597-27.831403 16.918925-75.68429799 24.53014899-10.545672 0.50435799-50.81790999 2.41480601-50.81791101 2.26197101v0.152835c0 0.137552-40.272239-1.757612-50.81791-2.26196999-47.85289601-7.641791-74.874269-23.704836-75.699582-24.560716-0.81003001-0.840597 10.545672-82.745313 12.71594001-96.30185101zM670.99510399 283.158925c30.414328-15.818507 106.985075-16.934209 106.98507501-16.934209v-0.137552s76.57074599 1.10041799 106.98507499 16.91892599 41.61719399 23.33802998 39.50805901 33.88370101c-2.10913401 10.545672-24.820537 115.605015-24.820537 118.218508 0 2.674627-2.139701 7.152716-13.984477 3.775044s-107.688119-7.51952201-107.68812-7.519522v0.137552s-95.82806 4.141851-107.672836 7.504239c-11.844776 3.408239-13.98447799-1.10041799-13.98447701-3.72919399 0-2.64406-22.726687-107.688119-24.82053799-118.23379101-2.10913401-10.530388 9.093731-18.06519401 39.49277601-33.883702z" fill="#343C3E" p-id="15902"></path><path d="M657.68310401 290.38806c-20.739821 11.401552-28.44274599 18.15689599-26.66985002 27.067224 2.10913401 10.545672 24.820537 115.589731 24.82053701 118.218507 0 2.64406 2.139701 7.168 13.984478 3.775045 2.68990999-0.779463 9.689791-1.574209 18.875224-2.368955-14.320716-35.106388-26.27247801-112.838687-31.01038901-146.691821zM897.268537 290.17409001c20.75510401 11.401552 28.45803001 18.172179 26.700418 27.06722299-2.10913401 10.530388-24.835821 115.589731-24.83582101 118.23379101 0 2.628776-2.139701 7.13743299-13.98447699 3.75976198-2.674627-0.779463-9.674507-1.589493-18.87522399-2.353672 14.30543299-35.121672 26.27247801-112.838687 30.99510399-146.707104z" fill="#2E3436" p-id="15903"></path><path d="M917.947224 303.70006c-5.991164-5.670209-17.010627-11.967045-34.15880599-20.877373-30.414328-15.803224-106.985075-16.934209-106.98507501-16.93420901v0.12226802h-0.21397v0.09170199c-6.128716 0.106985-77.44190999 1.81874599-106.54185099 16.918925-17.148179 8.910328-28.182925 15.191881-34.17408902 20.86209l27.03665702 21.22889499s54.975045-8.681075 114.32119399-9.67450699v-0.21397c59.02519399 1.05456699 113.526448 6.78591001 113.526447 6.78591l27.189493-18.309731z" fill="#202226" p-id="15904"></path><path d="M865.035463 44.490507s32.584597 15.803224 42.366089 26.54758299c9.781493 10.729075 24.270328 29.17635801 24.65241799 31.23964101 0.36680599 2.07856701 0 9.032597 0 9.032597s-58.169313-63.06006-67.01850699-66.819821z" fill="#D7B731" p-id="15905"></path><path d="M823.32656699 54.77635801h-102.41528299s-21.07606 6.037015-27.861971 82.83701499c-6.770627 76.815284-18.81408999 135.565373 28.610866 121.993552 47.440239-13.556537 73.05552199-1.497791 94.146866-3.010865 21.07606-1.513075 53.46197002 21.824955 41.403224-82.821732-12.05874601-104.67725401-13.556537-110.698985-33.88370201-118.99797001z" fill="#e98f36" p-id="15906"></path><path d="M717.701731 251.87343301l17.31629901-173.56035801-12.79235801 61.378865zM836.424597 251.491343L819.108299 77.915701l12.807641 61.363583z" fill="#AFB4AF" p-id="15907"></path><path d="M933.643463 892.530627s-14.672239 31.285493-38.02555301 39.55391c-23.33802998 8.298985-40.28752201 12.624239-40.28752199 12.624239s30.139224-0.38208999 45.743761-9.231283c15.650388-8.83390999 33.532179-22.75725401 32.569314-42.946866z" fill="#D67524" p-id="15908"></path><path d="M667.14364199 740.00047799c-0.534925 1.130985-2.41480601-2.812179-4.58507498 10.74435801s-13.52596999 95.430687-12.71594001 96.301851c0.397373 0.36680599 6.908179 4.355821 18.89050701 9.216l15.55868699-112.960956c-6.342687-1.635343-16.674388-4.264119-17.14817899-3.30125299zM890.192239 750.744836c-2.185552-13.556537-4.06543299-9.613373-4.600358-10.74435799-0.473791-0.96286599-10.805493 1.66590999-17.16346301 3.30125299l15.558686 112.960956c11.997612-4.84489599 18.50841799-8.83390999 18.89050801-9.216 0.79474599-0.871164-10.545672-82.745313-12.685373-96.301851z" fill="#2E3436" p-id="15909"></path><path d="M948.224 371.910687s32.768 13.021612 34.724299 25.997373c1.98686601 12.991045 1.69647799 14.381851 0 14.38185001-1.68119399 0-36.420776-18.35558199-36.42077699-18.35558201v-22.023641h1.69647799z" fill="#C2C6C1" p-id="15910"></path><path d="M982.68847799 415.270209l0.275104-2.96501501-36.420776-18.37086599v2.537075z" fill="#0D0E13" p-id="15911"></path><path d="M827.712955 866.930627h-107.30603s-58.73480599-7.91689601-50.81791 16.934209-7.91689601 55.35713401 73.422328 55.35713402h62.12776099c81.32394 0 65.50543301-30.50603001 73.422329-55.35713402s-50.84847801-16.934209-50.84847799-16.934209z" fill="#e98f36" p-id="15912"></path><path d="M780.456119 853.98543299c-49.74806 0-94.513672-11.03474599-125.524059-28.610866l-2.00214999-0.38208898c-3.194269 23.49086601-2.84274601 21.610985-2.39952201 22.05420899 0.81003001 0.840597 27.831403 16.918925 75.684299 24.545432 10.560955 0.489075 50.83319399 2.39952201 50.833194 2.26197101v-0.13755301c0 0.137552 40.256955-1.788179 50.802626-2.26197001 47.85289601-7.611224 74.874269-23.704836 75.69958301-24.54543298 0.244537-0.290388-0.626627-8.039164-2.048-19.08919401-30.78113401 16.139463-73.636299 26.165493-121.04597101 26.16549299z" fill="#202226" p-id="15913"></path><path d="M850.88286599 516.47809001c11.890627-36.89456699-7.91689601-49.885612-30.13922398-53.79820901-17.560836-3.072-61.21074601-2.154985-75.47032901-1.19212-25.645851 1.727045-53.88991001 12.56310401-40.211104 54.99032901 23.27689599 72.18435801-1.25325401 170.748179 0 182.33313399 0.932299 8.54352199 13.38841799 22.89480599 38.453492 26.440597 8.94089599 1.283821 65.61241801 1.192119 75.882986-1.31438801 20.40358199-4.997731 30.65886601-17.453851 31.48417901-25.14149299 1.23796999-11.569672-23.292179-110.133493 0-182.31784999z" fill="#e98f36" p-id="15914"></path></svg>